<svg xmlns="http://www.w3.org/2000/svg" width="172.21" height="73" viewBox="0 0 172.21 73">
  <g id="Group_1" data-name="Group 1" transform="translate(-154 -63)">
    <circle id="Ellipse_3" data-name="Ellipse 3" cx="18.5" cy="18.5" r="18.5" transform="translate(165 63)" fill="#ffc224"/>
    <circle id="Ellipse_4" data-name="Ellipse 4" cx="24" cy="24" r="24" transform="translate(154 88)" fill="#ffc224"/>
    <circle id="Ellipse_5" data-name="Ellipse 5" cx="24" cy="24" r="24" transform="translate(204 88)" fill="#ffc224"/>
    <path id="Subtraction_1" data-name="Subtraction 1" d="M23.834,47.667A23.84,23.84,0,0,1,14.556,1.873,23.884,23.884,0,0,1,35.75,3.188a23.837,23.837,0,0,0,0,41.29A23.826,23.826,0,0,1,23.834,47.667Z" transform="translate(254.943 88.236)" fill="#ffc224"/>
    <path id="Subtraction_2" data-name="Subtraction 2" d="M23.834,47.667A23.84,23.84,0,0,1,14.556,1.873,23.884,23.884,0,0,1,35.75,3.188a23.837,23.837,0,0,0,0,41.29A23.826,23.826,0,0,1,23.834,47.667Z" transform="translate(290.459 88.236)" fill="#ffc224"/>
  </g>
</svg>
